<svg width="600" height="600" viewBox="0 0 600 600" fill="none" xmlns="http://www.w3.org/2000/svg">
  <rect width="600" height="600" rx="52" fill="#D3E2FC" />
  <rect x="54" y="54" width="492" height="492" rx="30" fill="#092933" />
  <rect x="90" y="90" width="112" height="112" rx="16" fill="#F9FDFF" />
  <rect x="398" y="90" width="112" height="112" rx="16" fill="#F9FDFF" />
  <rect x="90" y="398" width="112" height="112" rx="16" fill="#F9FDFF" />
  <rect x="242" y="114" width="44" height="44" rx="8" fill="#F9FDFF" />
  <rect x="304" y="114" width="44" height="44" rx="8" fill="#2CA5BD" />
  <rect x="366" y="114" width="44" height="44" rx="8" fill="#F9FDFF" />
  <rect x="242" y="176" width="44" height="44" rx="8" fill="#5C9BA5" />
  <rect x="304" y="176" width="44" height="44" rx="8" fill="#F9FDFF" />
  <rect x="366" y="176" width="44" height="44" rx="8" fill="#5C9BA5" />
  <rect x="242" y="258" width="44" height="44" rx="8" fill="#C73523" />
  <rect x="304" y="258" width="44" height="44" rx="8" fill="#F9FDFF" />
  <rect x="366" y="258" width="44" height="44" rx="8" fill="#2CA5BD" />
  <rect x="428" y="258" width="44" height="44" rx="8" fill="#F9FDFF" />
  <rect x="242" y="320" width="44" height="44" rx="8" fill="#F9FDFF" />
  <rect x="304" y="320" width="44" height="44" rx="8" fill="#5C9BA5" />
  <rect x="366" y="320" width="44" height="44" rx="8" fill="#F9FDFF" />
  <rect x="428" y="320" width="44" height="44" rx="8" fill="#C73523" />
  <rect x="242" y="382" width="44" height="44" rx="8" fill="#5C9BA5" />
  <rect x="304" y="382" width="44" height="44" rx="8" fill="#F9FDFF" />
  <rect x="366" y="382" width="44" height="44" rx="8" fill="#2CA5BD" />
</svg>